<?xml version="1.0" encoding="utf-8"?>
<!-- Generator: Adobe Illustrator 16.2.1, SVG Export Plug-In . SVG Version: 6.00 Build 0)  -->
<!DOCTYPE svg PUBLIC "-//W3C//DTD SVG 1.1//EN" "http://www.w3.org/Graphics/SVG/1.1/DTD/svg11.dtd">
<svg version="1.1" id="レイヤー_1" xmlns="http://www.w3.org/2000/svg" xmlns:xlink="http://www.w3.org/1999/xlink" x="0px"
	 y="0px" width="200px" height="100px" viewBox="0 0 200 100" enable-background="new 0 0 200 100" xml:space="preserve">
<g>
	<g>
		<path d="M73.469,56.409c1.65-4.58,3.036-7.757,2.965-8.309c-0.002-0.651-0.274-1.212-0.714-1.575
			c0.044-0.036,0.085-0.075,0.125-0.117c0.898-0.967,0.612-2.515,0.174-3.711c0.125-0.527,0.095-0.933,0.063-1.36
			c-0.019-0.243-0.039-0.519-0.039-0.895c0-0.095-0.004-0.187-0.014-0.279c-0.005-0.1-0.02-0.197-0.048-0.292
			c-0.11-0.49-0.41-1.09-1.17-1.488c0.068-0.191,0.125-0.373,0.167-0.542c0.174-0.411,0.272-0.702,0.325-0.962
			c0.187-0.916-0.002-1.766-0.517-2.379c-0.098-0.285-0.288-0.648-0.658-0.993c-0.231-0.514-0.416-0.938-0.534-1.235
			c-0.193-0.481-0.74-0.715-1.222-0.523c-0.482,0.193-0.716,0.74-0.522,1.222c0.146,0.363,0.365,0.868,0.653,1.501
			c0.063,0.137,0.157,0.257,0.275,0.35c0.206,0.161,0.235,0.297,0.238,0.313c0.036,0.202,0.136,0.387,0.287,0.526
			c0.177,0.164,0.235,0.471,0.159,0.843c-0.028,0.138-0.104,0.35-0.24,0.667c-0.022,0.052-0.04,0.105-0.054,0.16
			c-0.048,0.211-0.135,0.467-0.259,0.761c-0.083,0.198-0.095,0.418-0.035,0.623l0.17,0.591c0.09,0.308,0.33,0.549,0.638,0.64
			c0.422,0.124,0.449,0.26,0.468,0.35c0.001,0.007,0.003,0.014,0.005,0.021c0.001,0.008,0.001,0.017,0.002,0.024
			c0.004,0.034,0.006,0.066,0.006,0.101c0,0.446,0.026,0.787,0.044,1.035c0.032,0.423,0.042,0.606-0.048,0.901
			c-0.043,0.141-0.052,0.289-0.026,0.433c-0.005,0.129,0.016,0.258,0.064,0.379c0.3,0.771,0.38,1.36,0.35,1.685
			c-0.189-0.042-0.044,0.602-0.087,0.579c-0.276-0.146-0.065,0-0.677-0.047c-0.401-0.03-0.493-0.04-0.728,0.101
			c-0.713,0.427-1.36,3.1-0.679,2.637c0.64-0.434,1.652-1.014,1.87-0.728c0.214,0.284-0.035,0.695,0.38,0.54
			c-0.044,0.098-0.2,0.313-0.269,0.456c-0.902,1.858-1.783,3.97-1.463,5.529c0.046,0.225,0.083,0.934-0.297,1.5
			c-0.253,0.377-0.813,0.968-1.353,1.068L73.469,56.409z"/>
	</g>
	<g>
		<path d="M74.458,42.702c-0.099-0.232-0.219-0.474-0.414-0.688c-0.096-0.105-0.212-0.199-0.311-0.266l-0.124-0.086l-0.021-0.017
			c-0.005-0.003-0.005-0.003-0.008-0.004c0.001,0.008-0.042-0.048-0.038-0.04c-0.084-0.108-0.165-0.193-0.249-0.28
			c-0.083-0.085-0.168-0.167-0.256-0.246c-0.087-0.08-0.178-0.158-0.273-0.233c-0.075-0.058-0.146-0.113-0.24-0.169
			c-0.061-0.147-0.157-0.28-0.271-0.374c-0.145-0.124-0.301-0.196-0.451-0.255c-0.15-0.059-0.297-0.1-0.431-0.145
			c-0.05-0.016-0.096-0.034-0.138-0.052c0.035-0.036,0.068-0.072,0.098-0.109c0.081-0.1,0.146-0.203,0.208-0.308
			c0.122-0.208,0.223-0.422,0.319-0.636l0.277-0.64c0.092-0.21,0.184-0.425,0.297-0.611c0.123-0.187,0.263-0.372,0.428-0.515
			c0.079-0.069,0.187-0.13,0.248-0.105c0.065,0.023,0.087,0.154,0.086,0.259c-0.001,0.224-0.057,0.452-0.118,0.673
			c-0.063,0.222-0.141,0.44-0.225,0.657c0.098-0.21,0.19-0.423,0.269-0.644c0.076-0.22,0.148-0.443,0.166-0.684
			c0.004-0.06,0.002-0.122-0.01-0.186c-0.014-0.061-0.039-0.139-0.118-0.179c-0.079-0.038-0.159-0.018-0.218,0.005
			c-0.062,0.025-0.116,0.059-0.165,0.095c-0.196,0.149-0.35,0.329-0.495,0.519c-0.142,0.204-0.245,0.411-0.353,0.618l-0.316,0.617
			c-0.109,0.203-0.22,0.402-0.344,0.586c-0.062,0.092-0.128,0.179-0.198,0.256c-0.069,0.077-0.146,0.14-0.213,0.171l-0.001,0
			c-0.09,0.042-0.128,0.148-0.085,0.237l0.001,0.004c0.063,0.131,0.158,0.193,0.233,0.24c0.079,0.047,0.152,0.08,0.224,0.111
			c0.143,0.061,0.276,0.112,0.397,0.173c0.121,0.06,0.229,0.127,0.303,0.205c0.075,0.077,0.113,0.158,0.128,0.253
			c0.01,0.062,0.046,0.121,0.104,0.157L72.2,41.09c0.051,0.032,0.136,0.102,0.208,0.172c0.076,0.071,0.15,0.147,0.222,0.226
			c0.073,0.079,0.144,0.16,0.212,0.243c0.066,0.081,0.133,0.167,0.18,0.241c0.039,0.052,0.028,0.043,0.069,0.091l0.051,0.056
			l0.042,0.04c0.054,0.049,0.104,0.089,0.144,0.122c0.081,0.067,0.135,0.122,0.186,0.188c0.1,0.13,0.173,0.304,0.233,0.491
			l0.001,0.004c0.003,0.011,0.007,0.021,0.012,0.031c0.081,0.193,0.303,0.284,0.496,0.203
			C74.448,43.117,74.539,42.895,74.458,42.702z"/>
		<path d="M68.803,38.282c0,0,0.368-0.933,0.306-1.247c-0.062-0.314-1.547-1.223-2.016-1.947c-0.468-0.724-1.012-2.651-1.833-2.881
			c-0.821-0.23-2.092,0.055-2.636,1.334c0.813-0.118,2.308-0.242,2.824,0.692C65.966,35.168,67.062,36.906,68.803,38.282z"/>
		<path d="M70.781,37.724c0,0-0.32-0.598-0.193-0.895c0.127-0.298,0.655-0.518,0.74-0.761c0.084-0.242,0.608-2.104,1.156-1.728
			c0.546,0.377,0.563,0.811,0.563,0.811c-0.252-0.025-0.754,0.292-0.942,0.562C71.847,36.086,71.13,36.929,70.781,37.724z"/>
		<path d="M67.21,38.567c0.215,0.402,0.036,1.503,0.262,1.68l0.925,0.211v-0.961L67.21,38.567z"/>
		<path d="M73.25,45.408c-0.087-0.051-0.176-0.093-0.262-0.152c-0.089-0.054-0.172-0.115-0.255-0.176
			c-0.162-0.125-0.315-0.265-0.459-0.405c-0.145-0.137-0.286-0.277-0.44-0.347c-0.038-0.02-0.077-0.033-0.117-0.042
			c-0.038-0.016-0.082-0.012-0.121-0.021c-0.042-0.001-0.085,0.001-0.127,0.001l-0.13,0.02c-0.088,0.013-0.17-0.047-0.184-0.135
			l-0.001-0.01l-0.003-0.026c-0.008-0.104,0.002-0.212-0.023-0.309c-0.013-0.101-0.047-0.191-0.083-0.275
			c-0.025-0.038-0.042-0.081-0.07-0.114c-0.031-0.03-0.052-0.069-0.088-0.093c-0.066-0.053-0.139-0.098-0.224-0.121
			c-0.041-0.016-0.083-0.025-0.13-0.03c-0.043-0.01-0.091-0.01-0.137-0.011c-0.093-0.003-0.189,0.01-0.283,0.029
			c-0.095,0.02-0.186,0.052-0.274,0.089c-0.041,0.023-0.084,0.042-0.124,0.066l-0.057,0.037l-0.056,0.034l-0.038,0.021
			c-0.027,0.014-0.044,0.027-0.079,0.043c-0.045,0.017-0.092,0.033-0.139,0.047c-0.049,0.016-0.091,0.019-0.134,0.022
			c-0.042,0.003-0.085,0.009-0.127,0.005c-0.169-0.012-0.335-0.066-0.472-0.162c-0.069-0.045-0.126-0.104-0.185-0.162
			c-0.047-0.063-0.104-0.126-0.136-0.197c-0.076-0.138-0.124-0.287-0.142-0.432c-0.025-0.148-0.016-0.29-0.003-0.43l0.036-0.204
			c0.014-0.066,0.038-0.128,0.057-0.192c0.035-0.131,0.096-0.243,0.146-0.364c0.057-0.115,0.122-0.222,0.184-0.334l0.111,0.521
			c0.002,0.005,0.006,0.009,0.012,0.01l-0.023-0.004c-0.014-0.004-0.052-0.007-0.075-0.011c-0.06-0.005-0.126-0.009-0.195-0.009
			c-0.14,0-0.283,0.005-0.428,0.021c-0.145,0.014-0.292,0.037-0.436,0.061c-0.146,0.026-0.29,0.059-0.434,0.09
			c-0.144,0.033-0.286,0.072-0.428,0.109l-0.423,0.126c-0.139,0.044-0.277,0.093-0.415,0.142c-0.139,0.048-0.273,0.105-0.408,0.161
			c-0.136,0.055-0.267,0.118-0.399,0.181c-0.129,0.067-0.256,0.138-0.383,0.211c-0.126,0.072-0.249,0.151-0.368,0.236
			c-0.119,0.084-0.236,0.173-0.352,0.264c-0.111,0.096-0.222,0.193-0.327,0.298c-0.111,0.101-0.205,0.215-0.308,0.328
			c-0.096,0.116-0.193,0.234-0.28,0.361c-0.095,0.123-0.173,0.257-0.263,0.389l-0.003,0.004c-0.014,0.021-0.043,0.026-0.064,0.012
			c-0.016-0.01-0.022-0.029-0.019-0.046c0.03-0.157,0.056-0.32,0.109-0.475c0.042-0.159,0.109-0.308,0.172-0.462
			c0.074-0.147,0.148-0.297,0.239-0.438c0.083-0.146,0.189-0.275,0.292-0.41c0.107-0.129,0.216-0.259,0.339-0.374
			c0.12-0.118,0.247-0.23,0.377-0.336c0.129-0.109,0.271-0.202,0.41-0.296c0.143-0.089,0.287-0.177,0.435-0.256
			c0.147-0.081,0.3-0.15,0.454-0.216c0.153-0.069,0.311-0.123,0.469-0.176c0.159-0.054,0.32-0.096,0.482-0.135
			c0.161-0.039,0.326-0.068,0.49-0.094c0.329-0.05,0.661-0.074,0.997-0.076c0.168-0.002,0.337,0.003,0.513,0.019
			c0.087,0.008,0.178,0.02,0.272,0.037c0.053,0.013,0.094,0.018,0.155,0.038c0.031,0.01,0.057,0.017,0.088,0.03
			c0.041,0.018,0.081,0.038,0.118,0.06c0.172,0.099,0.23,0.318,0.13,0.49l-0.008,0.014l-0.011,0.018
			c-0.055,0.084-0.116,0.167-0.166,0.253c-0.041,0.087-0.099,0.174-0.125,0.263c-0.015,0.044-0.037,0.089-0.048,0.132l-0.032,0.132
			c-0.013,0.085-0.025,0.173-0.016,0.251c0.003,0.081,0.022,0.154,0.052,0.218c0.01,0.036,0.036,0.057,0.051,0.089
			c0.022,0.022,0.042,0.05,0.066,0.068c0.049,0.041,0.104,0.063,0.162,0.076c0.024,0,0.066,0.005,0.079,0
			c0.008-0.001,0.016,0,0.026,0.002c0.018-0.005,0.049-0.022,0.074-0.034l0.039-0.018l0.009-0.005
			c0.006-0.003-0.047,0.028-0.024,0.015l0.001-0.001l0.003-0.002l0.005-0.003l0.023-0.013l0.091-0.05
			c0.061-0.031,0.124-0.054,0.186-0.08c0.125-0.043,0.253-0.076,0.384-0.093c0.132-0.017,0.264-0.023,0.399-0.009
			c0.066,0.007,0.134,0.014,0.2,0.033l0.1,0.025l0.098,0.04c0.131,0.052,0.251,0.137,0.352,0.238
			c0.054,0.048,0.09,0.112,0.132,0.168c0.04,0.059,0.063,0.124,0.092,0.187c0.044,0.128,0.075,0.258,0.081,0.386
			c0.019,0.128-0.003,0.25-0.005,0.374l-0.188-0.171l0.171-0.009c0.057,0.003,0.115,0.005,0.173,0.013
			c0.058,0.015,0.117,0.02,0.172,0.045c0.057,0.02,0.11,0.043,0.159,0.076c0.102,0.058,0.184,0.132,0.26,0.207
			c0.074,0.076,0.143,0.153,0.209,0.229c0.132,0.152,0.26,0.299,0.404,0.435c0.073,0.066,0.146,0.133,0.223,0.192
			c0.074,0.063,0.161,0.117,0.242,0.177l0.001,0.001c0.021,0.015,0.024,0.043,0.01,0.063C73.295,45.414,73.27,45.419,73.25,45.408z"
			/>
		<path d="M61.909,48.103c-0.031,0.083-0.042,0.154-0.046,0.231c-0.005,0.077,0,0.153,0.006,0.229
			c0.01,0.152,0.042,0.304,0.07,0.454c0.06,0.3,0.135,0.6,0.213,0.897c0.08,0.298,0.16,0.596,0.248,0.886
			c0.042,0.146,0.09,0.292,0.136,0.428c0.023,0.066,0.05,0.135,0.074,0.191c0.011,0.029,0.025,0.057,0.032,0.072
			c0.003,0.004,0.011,0.02,0.003,0.009c-0.005-0.006,0,0.001-0.014-0.013c-0.019-0.019-0.043-0.034-0.068-0.044l-0.418,0.073
			c0.047-0.039,0.096-0.078,0.145-0.116c0.049-0.036,0.097-0.079,0.146-0.109c0.098-0.06,0.199-0.114,0.297-0.169
			c0.099-0.049,0.202-0.091,0.302-0.135c0.101-0.041,0.205-0.074,0.306-0.109c0.103-0.034,0.206-0.061,0.31-0.088
			c0.104-0.028,0.209-0.047,0.314-0.067c0.104-0.021,0.21-0.037,0.317-0.048c0.106-0.016,0.215-0.022,0.322-0.025
			c-0.175,0.129-0.351,0.245-0.525,0.358l-0.26,0.171c-0.085,0.058-0.174,0.108-0.257,0.167l-0.251,0.166
			c-0.081,0.057-0.16,0.115-0.24,0.169c-0.076,0.058-0.146,0.118-0.221,0.175c-0.037,0.027-0.062,0.059-0.093,0.088
			c-0.03,0.031-0.06,0.059-0.091,0.088l-0.03,0.025c-0.11,0.098-0.265,0.109-0.389,0.047c-0.041-0.022-0.08-0.049-0.115-0.08
			c-0.029-0.027-0.035-0.037-0.053-0.057c-0.035-0.041-0.046-0.062-0.065-0.09c-0.033-0.053-0.057-0.098-0.078-0.14
			c-0.044-0.088-0.074-0.169-0.106-0.25c-0.062-0.161-0.109-0.322-0.152-0.482c-0.083-0.322-0.142-0.647-0.171-0.977
			c-0.03-0.329-0.036-0.663,0.006-0.999c0.02-0.167,0.059-0.334,0.112-0.5c0.031-0.082,0.066-0.161,0.111-0.236
			C61.779,48.217,61.841,48.146,61.909,48.103z"/>
		<path d="M65.05,44.476c0.06-0.035,0.279-0.165,0.341-0.2c2.462-1.382,5.645-0.694,7.707,0.6c0.146,0.092,0.19,0.286,0.099,0.432
			c-0.092,0.146-0.286,0.19-0.432,0.098c-1.905-1.196-4.83-1.84-7.066-0.584L65.05,44.476z"/>
		<path d="M68.04,40.627c-1.64,0-2.544-0.669-3.098-1.082c-0.115-0.084-0.212-0.157-0.296-0.21
			c-0.178-0.111-0.232-0.344-0.122-0.522c0.11-0.177,0.344-0.232,0.522-0.121c0.109,0.069,0.224,0.154,0.345,0.244
			c0.581,0.43,1.374,1.019,2.983,0.923c0.211-0.013,0.388,0.146,0.4,0.355c0.013,0.209-0.145,0.388-0.354,0.401
			C68.289,40.623,68.163,40.627,68.04,40.627z"/>
		<path d="M71.843,40.704c-0.194,0-0.36-0.15-0.377-0.348c-0.017-0.208,0.139-0.392,0.347-0.409
			c0.204-0.017,0.557-0.154,1.087-0.714c0.144-0.151,0.384-0.158,0.535-0.014c0.152,0.144,0.159,0.383,0.015,0.535
			c-0.566,0.598-1.082,0.908-1.576,0.948C71.865,40.703,71.854,40.704,71.843,40.704z"/>
		<path d="M71.651,38.92c0,0.271-0.005,1.19-0.091,1.328c-0.083,0.137-0.122,0.048-0.122,0.048l-0.423-0.522L71.651,38.92z"/>
		<path d="M68.239,34.421c0,0,0.053,0.042,0.146,0.114c0.091,0.082,0.213,0.211,0.345,0.368c0.132,0.159,0.279,0.349,0.421,0.563
			c0.144,0.212,0.285,0.447,0.418,0.687c0.131,0.239,0.292,0.47,0.389,0.71c0.045,0.123,0.079,0.244,0.099,0.364
			c0.019,0.122,0.035,0.233,0.036,0.345c0.003,0.109-0.001,0.21-0.014,0.304c-0.008,0.047-0.013,0.088-0.021,0.129
			c-0.013,0.041-0.023,0.079-0.034,0.113c-0.018,0.063-0.052,0.122-0.074,0.153c-0.022,0.03-0.035,0.046-0.035,0.046
			c-0.013,0.017-0.037,0.021-0.053,0.008c-0.005-0.004-0.009-0.009-0.012-0.014l-0.007-0.016c0,0-0.007-0.016-0.023-0.048
			c-0.017-0.031-0.031-0.062-0.066-0.116c-0.031-0.05-0.063-0.106-0.109-0.175c-0.041-0.067-0.087-0.144-0.138-0.227
			c-0.094-0.169-0.207-0.366-0.286-0.592c-0.081-0.227-0.116-0.492-0.204-0.739c-0.081-0.25-0.176-0.494-0.259-0.727
			c-0.088-0.23-0.174-0.443-0.254-0.625c-0.043-0.088-0.082-0.169-0.117-0.241c-0.038-0.069-0.071-0.129-0.099-0.179
			c-0.066-0.097-0.104-0.153-0.104-0.153c-0.012-0.017-0.008-0.041,0.01-0.053C68.207,34.41,68.226,34.412,68.239,34.421z"/>
		<path d="M70.57,37.82c0,0-0.037-0.06-0.078-0.162c-0.044-0.103-0.082-0.25-0.111-0.417c-0.028-0.167-0.047-0.354-0.031-0.545
			c0.008-0.095,0.031-0.192,0.051-0.291c0.022-0.1,0.037-0.2,0.044-0.301c0.003-0.101,0.009-0.203,0.003-0.303
			c-0.004-0.1-0.008-0.199-0.021-0.295c-0.004-0.097-0.031-0.187-0.04-0.277c-0.018-0.088-0.039-0.171-0.057-0.249
			c-0.025-0.077-0.047-0.147-0.066-0.209c-0.019-0.063-0.044-0.114-0.059-0.161c-0.035-0.09-0.055-0.142-0.055-0.142l-0.001-0.003
			c-0.007-0.02,0.002-0.042,0.022-0.049c0.015-0.006,0.031-0.001,0.042,0.01c0,0,0.04,0.042,0.106,0.114
			c0.032,0.037,0.078,0.08,0.117,0.136c0.042,0.056,0.088,0.12,0.14,0.189c0.044,0.073,0.096,0.152,0.146,0.239
			c0.045,0.089,0.097,0.184,0.136,0.287c0.043,0.103,0.083,0.21,0.113,0.323c0.034,0.113,0.056,0.229,0.079,0.346
			c0.021,0.118,0.042,0.235,0.062,0.352c0.021,0.116,0.029,0.231,0.026,0.341c-0.014,0.22-0.084,0.411-0.153,0.57
			c-0.077,0.159-0.153,0.282-0.222,0.369c-0.065,0.089-0.117,0.137-0.117,0.137c-0.019,0.019-0.05,0.018-0.069-0.001
			C70.574,37.826,70.571,37.823,70.57,37.82z"/>
		<path d="M61.348,44.697c0,0,0.016,0.046,0.031,0.121c0,0.041,0.034,0.074,0.048,0.104c0.013,0.025,0.054,0.066,0.074,0.094
			c0.036,0.029,0.056,0.058,0.096,0.083c0.03,0.027,0.071,0.049,0.105,0.076c0.042,0.022,0.075,0.05,0.12,0.072
			c0.04,0.025,0.085,0.046,0.127,0.071c0.045,0.02,0.087,0.048,0.135,0.066c0.023,0.009,0.045,0.022,0.069,0.034
			c0.023,0.009,0.047,0.017,0.07,0.029c0.047,0.025,0.095,0.035,0.144,0.059c0.048,0.017,0.097,0.031,0.146,0.051
			c0.048,0.012,0.096,0.026,0.141,0.04s0.086,0.019,0.123,0.028c0.071,0.015,0.121,0.03,0.121,0.03s-0.018,0.043-0.065,0.109
			c-0.023,0.03-0.05,0.078-0.092,0.109c-0.041,0.036-0.09,0.078-0.148,0.115c-0.061,0.03-0.129,0.063-0.206,0.087
			c-0.076,0.016-0.162,0.04-0.25,0.038c-0.088,0.002-0.181-0.003-0.272-0.028c-0.094-0.015-0.18-0.06-0.269-0.098
			c-0.083-0.051-0.166-0.1-0.234-0.17c-0.074-0.062-0.13-0.146-0.181-0.223c-0.046-0.085-0.083-0.169-0.1-0.26
			c-0.023-0.083-0.017-0.178-0.011-0.252c0.02-0.082,0.033-0.142,0.072-0.204c0.033-0.057,0.065-0.104,0.099-0.12
			C61.303,44.718,61.348,44.697,61.348,44.697z"/>
		<path d="M66.477,41.063c0,0-0.013,0.004-0.037,0.01c-0.025,0.006-0.059,0.015-0.104,0.021c-0.045,0.005-0.105,0.01-0.167,0.01
			c-0.062,0-0.134-0.002-0.209-0.011c-0.075-0.007-0.157-0.021-0.24-0.039c-0.085-0.018-0.171-0.045-0.258-0.076
			c-0.086-0.036-0.175-0.076-0.26-0.125c-0.085-0.047-0.173-0.095-0.261-0.143c-0.174-0.093-0.346-0.193-0.5-0.297
			c-0.077-0.054-0.153-0.101-0.219-0.155c-0.068-0.052-0.132-0.102-0.188-0.152c-0.057-0.047-0.108-0.093-0.15-0.136
			c-0.043-0.042-0.083-0.078-0.109-0.112c-0.056-0.066-0.088-0.104-0.088-0.104c-0.008-0.009-0.006-0.021,0.002-0.029
			c0.007-0.006,0.018-0.006,0.025-0.001l0.001,0.001c0,0,0.039,0.028,0.108,0.078c0.032,0.025,0.077,0.052,0.125,0.083
			c0.048,0.033,0.105,0.066,0.169,0.1c0.125,0.071,0.277,0.141,0.439,0.214c0.165,0.07,0.34,0.145,0.52,0.208
			c0.089,0.034,0.18,0.061,0.271,0.086c0.09,0.027,0.18,0.049,0.262,0.08c0.167,0.061,0.316,0.135,0.443,0.201
			c0.064,0.034,0.122,0.065,0.173,0.094c0.052,0.031,0.094,0.054,0.132,0.079c0.077,0.044,0.123,0.075,0.123,0.075
			c0.011,0.006,0.013,0.021,0.007,0.031C66.487,41.058,66.482,41.062,66.477,41.063z"/>
		<path d="M72.17,40.94c-0.133,0-0.263-0.071-0.332-0.196c-0.101-0.184-0.034-0.414,0.149-0.515c0.28-0.154,1.666-0.892,2.403-0.216
			c-0.026,0.119-0.041,0.415,0.069,0.539c-0.142,0.154-0.381,0.165-0.535,0.023c-0.24-0.22-1.081,0.048-1.571,0.318
			C72.296,40.925,72.233,40.94,72.17,40.94z"/>
		<path d="M56.257,41.222c0,0,0,0.017,0.001,0.05c0.003,0.034,0.001,0.083-0.006,0.148c-0.017,0.129-0.051,0.319-0.122,0.549
			c-0.07,0.23-0.16,0.506-0.27,0.814c-0.105,0.309-0.222,0.657-0.319,1.029c-0.099,0.372-0.174,0.775-0.17,1.171
			c0.002,0.397,0.104,0.768,0.326,1.075c0.024,0.04,0.06,0.076,0.089,0.114c0.014,0.016,0.034,0.043,0.042,0.05l0.064,0.07
			c0.092,0.104,0.156,0.165,0.244,0.25c0.169,0.164,0.354,0.321,0.544,0.472c0.383,0.297,0.8,0.571,1.228,0.765
			c0.212,0.1,0.427,0.179,0.628,0.223c0.2,0.043,0.387,0.055,0.502,0.021c0.117-0.031,0.179-0.072,0.256-0.19
			c0.073-0.116,0.123-0.304,0.15-0.506l0.016-0.155l0.004-0.162c0.005-0.104,0-0.241,0.001-0.358
			c0.001-0.243,0.001-0.481,0.002-0.712c0.008-0.465,0.016-0.904,0.039-1.312c0.017-0.406,0.053-0.782,0.085-1.113
			c0.022-0.167,0.039-0.322,0.063-0.466c0.021-0.144,0.055-0.276,0.078-0.394c0.02-0.118,0.059-0.224,0.086-0.313
			c0.027-0.09,0.055-0.165,0.084-0.224c0.057-0.115,0.086-0.177,0.086-0.177s-0.007,0.068-0.019,0.195
			c-0.01,0.061-0.012,0.139-0.009,0.23c0.005,0.091-0.003,0.192,0.009,0.31c0.013,0.231,0.051,0.513,0.083,0.835
			c0.045,0.323,0.096,0.688,0.152,1.086c0.053,0.398,0.11,0.831,0.17,1.288c0.028,0.229,0.057,0.465,0.086,0.707
			c0.013,0.125,0.031,0.232,0.04,0.375l0.014,0.211L60.516,47.4c-0.01,0.298-0.053,0.626-0.223,0.97
			c-0.079,0.171-0.212,0.339-0.369,0.482c-0.165,0.134-0.358,0.247-0.553,0.3c-0.394,0.121-0.757,0.092-1.079,0.028
			c-0.323-0.066-0.616-0.173-0.892-0.298c-0.548-0.258-1.032-0.586-1.467-0.959c-0.218-0.185-0.422-0.383-0.612-0.593
			c-0.092-0.102-0.204-0.23-0.274-0.323l-0.06-0.075c-0.033-0.042-0.048-0.068-0.072-0.103c-0.043-0.066-0.09-0.128-0.127-0.199
			c-0.326-0.546-0.398-1.185-0.326-1.705c0.071-0.527,0.241-0.972,0.421-1.354c0.182-0.384,0.383-0.706,0.56-0.988
			c0.176-0.281,0.341-0.516,0.467-0.713c0.125-0.198,0.222-0.354,0.274-0.468c0.025-0.056,0.046-0.101,0.055-0.133
			C56.251,41.238,56.257,41.222,56.257,41.222z"/>
		<path d="M59.123,52.252c-0.108-0.037-7.407,2.535-9.249,14.463l-0.03,0.189l0.188,0.044c1.594,0.382,4.188,6.05,5.054,8.203
			l0.077,0.192l0.193-0.076c2.738-1.085,1.774-4.938,1-8.035c-0.3-1.198-0.583-2.332-0.562-3.024
			c0.083-2.696,1.555-4.71,4.377-5.983l0.44-0.197L59.123,52.252z"/>
		<path d="M65.947,50.246c0,0,0.083-0.063,0.231-0.159c0.152-0.093,0.376-0.217,0.654-0.339c0.555-0.245,1.34-0.466,2.155-0.526
			c0.202-0.018,0.408-0.016,0.608-0.018c0.101,0.004,0.201,0.009,0.299,0.017c0.099,0.005,0.197,0.013,0.292,0.03
			c0.192,0.024,0.375,0.056,0.548,0.103c0.172,0.039,0.332,0.095,0.478,0.15c0.146,0.049,0.273,0.12,0.384,0.177
			c0.055,0.031,0.108,0.055,0.153,0.083c0.045,0.031,0.087,0.06,0.124,0.086c0.147,0.104,0.224,0.17,0.224,0.17
			s-0.106-0.006-0.278-0.03c-0.042-0.006-0.09-0.013-0.141-0.02c-0.053-0.001-0.108-0.008-0.168-0.013
			c-0.119-0.009-0.248-0.023-0.393-0.025c-0.144-0.006-0.296-0.018-0.459-0.014c-0.162-0.005-0.333,0-0.509,0.002
			c-0.175-0.003-0.359,0.019-0.543,0.019c-0.186,0.018-0.374,0.017-0.562,0.039c-0.188,0.011-0.378,0.03-0.565,0.046
			c-0.187,0.018-0.371,0.034-0.549,0.051c-0.361,0.035-0.698,0.068-0.987,0.097c-0.293,0.024-0.539,0.046-0.715,0.058
			C66.052,50.245,65.947,50.246,65.947,50.246z"/>
		<path d="M56.349,75.781c-0.186-0.125,2.075-2.413,2.1-2.636c0.29-2.635,0.418-4.403,0.269-6.197
			c-0.299-3.588,0.791-10.651,2.256-13.241c0.083-0.146,0.25-0.113,0.416-0.152c0.165-0.037,0.894,0.117,1.034,0.212l1.935,0.874
			c0.226,0.152,0.587,0.318,0.5,0.575c-2.866,8.394-3.376,12.364-2.814,16.657c0.033,0.252-0.094,0.498-0.318,0.616
			C61.727,72.488,58.899,73.856,56.349,75.781z"/>
		<path d="M68.731,38.552c0,0,0.019,0.172,0.05,0.474c0.008,0.074,0.017,0.158,0.027,0.249c0.005,0.045,0.009,0.092,0.014,0.142
			c0.002,0.024,0.004,0.049,0.007,0.075l0.001,0.019l0.001,0.01l0.001,0.004c0.001-0.007-0.011,0.068-0.006,0.038l-0.001,0.002
			c-0.003,0.005,0.005,0.006-0.027,0.046c-0.014,0.015-0.031,0.026-0.047,0.033l-0.022,0.006c-0.1,0.018-0.144,0-0.208-0.007
			c-0.059-0.011-0.117-0.025-0.176-0.041c-0.03-0.007-0.059-0.016-0.089-0.024l-0.023-0.007c-0.03-0.012-0.021-0.009-0.032-0.014
			l-0.042-0.021c-0.054-0.023-0.119-0.074-0.179-0.113c-0.225-0.161-0.441-0.333-0.672-0.526c-0.231-0.19-0.467-0.398-0.711-0.614
			c-0.489-0.431-0.992-0.909-1.487-1.399c-0.25-0.245-0.494-0.493-0.735-0.745c-0.12-0.126-0.24-0.253-0.352-0.39
			c-0.056-0.063-0.112-0.136-0.165-0.21c-0.054-0.072-0.112-0.158-0.134-0.184c-0.032-0.044-0.07-0.084-0.093-0.103
			c-0.023-0.021-0.031-0.008,0.044-0.007c0.036-0.005,0.074-0.016,0.091-0.034c0.016-0.011,0.017-0.018,0.012-0.013
			c-0.012,0.007-0.038,0.054-0.059,0.098c-0.041,0.1-0.075,0.224-0.1,0.349c-0.029,0.124-0.051,0.25-0.069,0.374
			c-0.036,0.245-0.067,0.478-0.091,0.686c-0.025,0.208-0.048,0.391-0.065,0.541c-0.039,0.303-0.068,0.478-0.068,0.478
			c-0.003,0.021-0.023,0.036-0.044,0.033c-0.015-0.002-0.027-0.014-0.032-0.027c0,0-0.012-0.042-0.036-0.123
			c-0.024-0.08-0.057-0.196-0.091-0.347c-0.036-0.151-0.073-0.334-0.106-0.547c-0.031-0.213-0.064-0.456-0.073-0.726
			c-0.008-0.274-0.015-0.565,0.082-0.926c0.03-0.094,0.058-0.19,0.136-0.307c0.04-0.057,0.094-0.12,0.172-0.176
			c0.083-0.056,0.194-0.104,0.308-0.106c0.235-0.007,0.373,0.091,0.474,0.165c0.101,0.08,0.172,0.161,0.237,0.245
			c0.074,0.104,0.102,0.155,0.145,0.216c0.042,0.062,0.081,0.125,0.129,0.189c0.09,0.129,0.185,0.262,0.285,0.394
			c0.198,0.267,0.418,0.528,0.638,0.791c0.447,0.517,0.914,1.022,1.354,1.493c0.22,0.235,0.437,0.458,0.643,0.669
			c0.203,0.21,0.408,0.409,0.587,0.571c0.045,0.035,0.074,0.074,0.129,0.107l0.041,0.024c0,0.001,0.023,0.014,0.007,0.007
			l0.02,0.008l0.081,0.032c0.053,0.021,0.105,0.039,0.155,0.053c0.044,0.015,0.108,0.024,0.112,0.025c0,0,0.001,0.001,0,0.002
			c-0.01,0.003-0.022,0.011-0.03,0.022c-0.008,0.007-0.014,0.033-0.011,0.024l0.004-0.009l0.002-0.002
			c0.004-0.032-0.007,0.041-0.005,0.033v-0.005v-0.01v-0.019c0-0.026,0-0.05,0-0.075c0-0.049,0.001-0.097,0.001-0.142
			c0.001-0.091,0.003-0.175,0.004-0.25c0.005-0.302,0.009-0.475,0.009-0.475c0-0.021,0.018-0.037,0.038-0.037
			C68.713,38.518,68.729,38.532,68.731,38.552L68.731,38.552L68.731,38.552z"/>
		<path d="M73.446,28.879c-1.214-2.311-3.341-4.87-9.912-6.33c-0.433-0.096-0.881-0.168-1.336-0.22
			c-0.89-1.363-3.225-2.204-5.124-1.721v0c0,0,0,0,0,0c0,0.34,0.012,0.823-0.388,1.242c-0.312,0.325-0.874,0.611-1.884,0.762
			c-0.808,0.121-1.708,0.69-2.5,1.509c-1.478,1.522-2.587,3.91-2.046,5.882c0.277,0.739,0.755,1.102,1.066,0.847
			c0.072-0.059,0.135-0.151,0.184-0.279c0.166-0.426,0.281-0.783,0.466-0.994c0.008-0.009,0.018-0.015,0.026-0.023
			c0.022,0.018,0.043,0.037,0.067,0.052l0.106,0.065c0.572,0.354,1.166,0.702,1.7,0.823c0.001-0.001,0.003-0.002,0.005-0.003
			c0.003,0.001,0.007,0.002,0.01,0.003c-0.157,0.701-0.402,2.114-0.203,3.429c0.261,1.711,0.888,3.577,1.638,4.869
			c0.129,0.222,0.1,0.372,0.066,0.466c-0.155,0.435-0.879,0.792-1.121,0.883c-0.124,0.046-0.215,0.153-0.24,0.282l-0.341,1.742
			c-0.029,0.147,0.033,0.298,0.155,0.384c0.123,0.085,0.286,0.091,0.413,0.013c0.899-0.546,2.003-1.229,2.155-1.382
			c0.225-0.225,0.682-1.194,0.565-2.071c0.04-1.744,0.687-2.703,1.823-2.703c0.537,0,1.008,0.226,1.141,0.389
			c0.539,0.66,0.703,0.912,0.563,1.824c-0.07,0.46-0.201,1.078-0.326,1.675c-0.367,1.738-0.389,1.961-0.217,2.173
			c0.072,0.089,0.197,0.149,0.312,0.149c0.625,0,1.659-1.538,2.452-4.914c0.674-2.874,0.307-5.729,0.108-7.263
			c-0.015-0.122-0.03-0.239-0.044-0.348c1.433,0.728,4.708,2.289,6.266,2.809c0.348,0.116,0.761,0.177,1.196,0.177
			c1.094,0,2.614-0.402,3.298-1.532C73.862,31.019,74.103,30.129,73.446,28.879z"/>
		<path d="M43.727,68.265c0.021,0.004,0.043,0.007,0.064,0.007c0.076,0,0.149-0.028,0.207-0.078c0.074-0.064,0.113-0.161,0.105-0.26
			c-0.002-0.032-0.231-3.174,1.554-6.456c0.476-0.871,1.036-1.886,1.629-2.962c1.75-3.172,3.734-6.768,4.78-8.945
			c1.419-2.953,2.3-6.232,2.417-8.997c0.005-0.109-0.048-0.214-0.14-0.274s-0.208-0.068-0.308-0.021
			c-0.101,0.048-0.996,0.482-1.323,0.773c-0.043,0.039-0.075,0.088-0.091,0.144c-0.583,1.946-2.796,7.626-4.52,10.699
			c-0.411,0.732-0.97,1.692-1.59,2.742c-0.091,0.586-0.202,1.179-0.331,1.777c1.008-1.688,1.938-3.271,2.467-4.214
			c1.717-3.061,3.915-8.682,4.544-10.732c0.143-0.107,0.388-0.249,0.632-0.38c-0.2,2.54-1.051,5.565-2.323,8.211
			c-1.039,2.162-3.018,5.75-4.764,8.914c-0.594,1.077-1.155,2.092-1.631,2.966c-1.51,2.773-1.651,5.396-1.643,6.389L43.727,68.265z"
			/>
		<path d="M64.87,39.216c-0.009,0-0.02-0.001-0.029-0.003c-0.083-0.016-0.136-0.096-0.119-0.178c0.042-0.211-0.04-2.201-0.62-3.231
			c-0.041-0.073-0.015-0.165,0.059-0.206c0.073-0.042,0.165-0.016,0.206,0.057c0.631,1.123,0.706,3.175,0.653,3.438
			C65.005,39.166,64.941,39.216,64.87,39.216z"/>
		<g>
			<path d="M66.096,42.649c0.043-0.021,0.085-0.041,0.128-0.059c0.125-0.058,0.255-0.108,0.404-0.158
				c0.137-0.047,0.274-0.083,0.404-0.116c0.228-0.056,0.469-0.098,0.735-0.127c0.087-0.009,0.17-0.015,0.247-0.021l0.057-0.004
				l0.24-0.006l0.029,0c-0.019,0.051-0.033,0.11-0.033,0.176c-0.001,0.076,0.016,0.145,0.037,0.206l-0.074-0.014l-0.206-0.029
				l-0.057-0.006c-0.07-0.006-0.147-0.014-0.23-0.019c-0.105-0.006-0.217-0.01-0.336-0.01c-0.13,0-0.258,0.005-0.381,0.014
				c-0.128,0.011-0.265,0.023-0.405,0.047c-0.151,0.024-0.287,0.052-0.415,0.086C66.19,42.622,66.143,42.634,66.096,42.649z"/>
		</g>
		<g>
			<path d="M46.354,55.559c2.879-4.932,6.056-10.984,6.68-14.703c-0.417-0.246-2.386-0.36-4.659,0.663
				c-0.3,1.388-0.849,3.133-1.497,4.903C47.008,49.181,46.965,52.275,46.354,55.559z"/>
		</g>
		<g>
			<path d="M46.327,27.462c-1.096-0.271-2.663-0.59-4.477-0.96c-4.514-0.92-9.719-1.738-11.165-2.568
				c-1.179-0.678-2.805-2.639-2.805-2.639v8.973l0.603-0.094c0.015-0.002,1.53-0.237,3.235-0.237c0.587,0,1.133,0.028,1.623,0.083
				c0.181,0.02,0.435,0.046,0.75,0.078c2.228,0.227,6.691,0.755,11.239,1.878l1.735,0.428l1.4-4.414L46.327,27.462z"/>
			<path d="M36.422,48.052c-1.728-0.936-4.096-2.218-9.658-2.218c-0.198,0-0.399,0.001-0.603,0.005v-5.771
				c1.624,0.108,3.916,0.229,6.118,0.229c2.77,0,4.578-0.192,5.371-0.574l0.1-0.047l0.332-3.559l0.03-0.342l-0.312,0.149
				c-0.013,0.006-0.339,0.158-1.64,0.363c-0.696,0.11-2.443,0.182-4.45,0.182c-2.68,0-5.475-0.124-7.868-0.347l-1.846-0.172V50.37
				l2.299-0.241c0.93-0.098,1.822-0.147,2.653-0.147c3.786,0,5.634,1.027,6.635,1.583c0.107,0.06,0.206,0.114,0.299,0.163
				c-0.188,2.39-0.982,4.82-2.24,6.859c-1.281,2.074-2.744,2.939-3.275,3.202c-0.527-0.257-1.98-1.111-3.27-3.202
				c-1.002-1.623-1.687-3.415-2.035-5.326l-0.03-0.164l-0.167,0.004c-0.548,0.015-1.124-0.05-1.699-0.191
				c-0.785-0.193-1.526-0.518-2.144-0.936l-0.343-0.232l0.039,0.413c0.264,2.804,1.325,5.855,2.99,8.598l0.101,0.167
				c1.007,1.663,1.188,1.963,6.11,6.132l0.451,0.38l0.451-0.381c4.922-4.169,5.103-4.468,6.109-6.13l0.102-0.168
				c1.941-3.198,3.055-6.814,3.055-9.917v-2.009l-0.445-0.172C37.264,48.509,36.876,48.298,36.422,48.052z"/>
		</g>
		<path d="M85.623,61.915c0.786-2.588,0.499-3.09,0.389-3.282c-0.16-0.28-0.381-0.512-1.729-1c0.331-0.924,0.356-1.66,0.076-2.195
			c-0.214-0.41-0.791-0.968-3.235-1.726c2.623-3.217,6.4-8.24,6.4-10.484c0-1.332-2.001-5.95-4.132-5.95
			c-0.074,0-0.146,0.005-0.218,0.015c-1.388,0.192-3.161,3.154-9.036,15.098c-1.074,2.186-1.924,3.912-2.274,4.5
			c-0.291,0.488-0.488,0.641-0.674,0.689c-0.219-0.694-0.355-1.545-0.39-2.441c-0.053-1.352-0.317-2.58-0.329-2.631l-0.041-0.191
			l-0.11-0.16c-0.024-0.037-0.61-0.898-1.322-1.48c-0.737-0.603-1.616-0.668-1.96-0.668c-0.077,0-0.12,0.004-0.119,0.004
			l-0.747,0.049l-0.171,0.725c-0.011,0.045-1.136,4.795-1.83,8.199l-0.033,0.166l1.148,8.796l0.075,0.15
			c0.788,1.594,1.574,2.743,2.095,3.505c0.118,0.174,0.28,0.41,0.383,0.571c-0.283,1.261-0.255,2.025,0.089,2.467
			c0.216,0.276,0.54,0.436,0.889,0.436h9.459c0.668,0,1.276-0.479,2.229-2.849c0.167-0.222,0.513-0.686,0.936-1.256
			c0.491-0.66,1.134-1.524,1.599-2.144c0.175-0.209,0.354-0.438,0.53-0.682l2.868-2.149l-0.013-0.522
			C86.418,65.267,86.348,63.472,85.623,61.915z M84.741,59.361c-0.027,0.412-0.296,1.602-0.587,2.468
			c-2.4,3.91-4.444,6.393-4.945,6.453c-0.471-0.065-0.545-0.285-0.683-0.815c-0.066-0.259-0.142-0.547-0.304-0.812
			c2.496-3.589,3.293-5.181,3.828-6.25c0.333-0.663,0.549-1.093,1.009-1.685C83.741,58.949,84.463,59.218,84.741,59.361z
			 M80.295,70.121c-0.492,0.661-0.917,1.231-1.005,1.347l-0.037,0.047l-0.022,0.058c-0.334,0.844-0.817,1.839-1.048,2.075h-9.115
			c0.002-0.303,0.097-0.907,0.237-1.468l0.017-0.064l-0.005-0.067c-0.021-0.285-0.241-0.607-0.681-1.251
			c-0.491-0.718-1.229-1.797-1.963-3.271l-1.087-8.327c0.584-2.856,1.458-6.605,1.725-7.743c0.225,0.032,0.532,0.117,0.787,0.325
			c0.448,0.367,0.863,0.922,0.999,1.11c0.056,0.282,0.24,1.267,0.28,2.302c0.053,1.361,0.315,2.625,0.737,3.559l0.096,0.214
			l0.233,0.028c0.18,0.021,0.341,0.033,0.494,0.033c0.935,0,1.559-0.408,2.154-1.406c0.381-0.639,1.242-2.388,2.332-4.605
			c1.382-2.807,3.101-6.301,4.644-9.172c2.445-4.546,3.162-5.085,3.307-5.138c0.006-0.001,0.013-0.001,0.021-0.001
			c0.294,0,0.939,0.564,1.659,1.803c0.681,1.172,1.048,2.276,1.048,2.72c0,1.989-5.086,8.434-7.053,10.756l-1.762,1.91l0.613,0.565
			l1.6-1.73c1.612,0.436,3.385,1.07,3.6,1.371c0.144,0.272-0.165,1.213-0.534,1.902c-0.625,0.768-0.893,1.299-1.258,2.029
			c-0.545,1.089-1.366,2.729-4.066,6.573c-0.181,0.04-0.614,0.066-1.129-0.365c-0.818-0.688-1.175-2.002-0.974-2.494
			c0.138-0.341,1.426-1.155,2.542-1.703l0.248-0.122l-0.015-0.276c-0.12-2.151,1.305-3.61,1.317-3.624l0.718-0.713h-2.271v0.835
			h0.401c-0.455,0.684-1.016,1.822-1.007,3.272c-0.781,0.398-2.414,1.302-2.706,2.018c-0.378,0.931,0.209,2.605,1.21,3.446
			c0.553,0.465,1.074,0.583,1.46,0.583c0.292,0,0.505-0.066,0.596-0.103c0.033,0.101,0.062,0.207,0.091,0.316
			c0.14,0.545,0.332,1.288,1.374,1.436c0.036,0.005,0.073,0.008,0.111,0.008c0.157,0,0.343-0.049,0.581-0.196
			c0.11,0.336,0.332,0.649,0.741,0.795c0.02,0.005,0.04,0.009,0.06,0.014C80.49,69.857,80.394,69.988,80.295,70.121z M82.589,67.099
			l-0.065,0.06c-0.068,0.079-0.259,0.326-0.535,0.692c-0.499,0.596-0.998,1.05-1.203,1.07c-0.228-0.094-0.258-0.438-0.256-0.628
			c0.51-0.52,1.182-1.345,2.098-2.638c0.743-1.05,1.435-2.115,1.853-2.774c0.362,0.954,0.473,1.987,0.504,2.422L82.589,67.099z"/>
		<path d="M45.325,34.779c-1.021-0.084-1.961-0.262-2.727-0.498l-0.151,0.253c-1.575,2.625-1.594,15.082-1.594,15.207v1.75
			c0,3.795-1.346,8.189-3.693,12.057l-0.115,0.188c-1.313,2.17-2.92,4.063-7.25,7.329c-0.351,0.266-1.045,0.696-1.427,0.931
			c-0.381-0.234-1.075-0.666-1.426-0.931c-4.15-3.13-5.749-4.96-6.981-6.896l-0.366-0.574l0,0c-0.766,0.236-1.705,0.415-2.726,0.498
			c-1.932,0.159-3.628-0.064-4.441-0.523c0.914,0.701,2.622,2.854,4.526,4.964c0.696,0.871,1.555,1.729,2.488,2.554
			c0.418,0.385,0.833,0.738,1.239,1.046c0.001,0.001,0.003,0.002,0.004,0.003c1.106,0.896,2.254,1.743,3.317,2.509
			c0.728,0.527,1.846,1.262,2.346,1.544c0.52,0.293,1.71,1.124,1.722,1.133l0.299,0.208l0.299-0.208
			c0.012-0.009,1.203-0.84,1.722-1.133c0.5-0.283,1.619-1.019,2.346-1.544c3.84-2.773,6.392-5.396,8.274-8.508l0.113-0.187
			c2.774-4.571,4.366-9.843,4.366-14.46v-1.75c0-3.459,0.259-7.1,0.543-9.707c0.15-1.267,0.489-2.012,0.907-2.948
			c0.427-0.955,1.244-1.992,2.005-2.521C48.037,34.805,46.746,34.896,45.325,34.779z"/>
		<g>
			<path d="M73.879,47.106c-0.552,0-1.091,0.375-1.504,1.038c-0.543-0.198-1.207-0.298-1.973-0.298
				c-2.195,0-4.902,0.828-6.644,1.571l-0.455-0.429c-0.349-1.575,0.303-2.861,1.989-3.925l7.893,0.613
				c0.155,0.077,0.542,0.238,1.133,0.271c0.094,0.005,0.184-0.032,0.247-0.1c0.696-0.75,0.135-2.384-0.126-3.025
				c0.176-0.521,0.151-0.852,0.115-1.336c-0.019-0.247-0.042-0.555-0.042-0.966c0-0.074-0.004-0.144-0.013-0.216
				c0-0.003,0-0.006,0-0.009c0-0.038-0.007-0.074-0.019-0.106c-0.142-0.704-0.728-0.95-1.124-1.066l-0.171-0.591
				c0.143-0.342,0.247-0.648,0.308-0.911c0.167-0.388,0.256-0.644,0.298-0.852c0.144-0.706-0.02-1.329-0.44-1.719
				c-0.03-0.169-0.144-0.545-0.584-0.89c-0.299-0.661-0.524-1.179-0.66-1.525l-0.694-0.071c0.145,0.428,0.524,1.283,0.819,1.928
				c0.022,0.049,0.058,0.092,0.101,0.125c0.208,0.149,0.309,0.301,0.358,0.406c-0.009,0.02-0.015,0.04-0.021,0.061
				c-0.03,0.129,0.025,0.263,0.138,0.334c0.343,0.219,0.481,0.677,0.371,1.227c-0.043,0.211-0.168,0.514-0.272,0.754
				c-0.008,0.018-0.013,0.037-0.018,0.057c-0.057,0.256-0.166,0.57-0.322,0.932c-0.029,0.067-0.033,0.142-0.013,0.212l0.251,0.866
				c0.031,0.106,0.115,0.188,0.222,0.216c0.512,0.135,0.784,0.274,0.847,0.663c0.009,0.058,0.013,0.115,0.013,0.176
				c0,0.434,0.024,0.754,0.043,1.012c0.036,0.484,0.054,0.727-0.119,1.189c-0.027,0.075-0.026,0.159,0.006,0.233
				c0.434,1.013,0.573,1.939,0.367,2.354c-0.468-0.053-0.733-0.199-0.735-0.199l0,0l0,0l-0.338-0.226
				c-0.14-0.094-0.331-0.059-0.429,0.079c-0.01,0.015-0.02,0.029-0.027,0.044L65.24,44.43c-0.066-0.004-0.132,0.011-0.188,0.045
				c-2.015,1.239-2.801,2.836-2.335,4.75c0.015,0.059,0.045,0.112,0.089,0.154l0.672,0.634c0.092,0.087,0.227,0.11,0.342,0.059
				c1.674-0.738,4.403-1.601,6.582-1.601c0.806,0,1.472,0.118,1.979,0.351c0.151,0.069,0.33,0.009,0.408-0.139
				c0.367-0.701,0.805-0.951,1.091-0.951c0.231,0,0.38,0.155,0.396,0.407c-0.034,0.087-0.134,0.29-0.229,0.487
				c-0.578,1.189-1.78,3.665-1.439,5.328c0.067,0.325,0.081,1.106-0.344,1.739c-0.299,0.445-0.762,0.729-1.378,0.846
				c-0.13,0.023-0.316-0.066-0.436,0.037c-0.244,0.212-0.248-0.008-0.395-0.023v0.629c0.353,0.033,0.669,0.025,0.946-0.027
				c0.788-0.148,1.387-0.522,1.782-1.112c0.539-0.802,0.528-1.769,0.438-2.214c-0.299-1.455,0.884-3.889,1.388-4.928
				c0.187-0.382,0.262-0.54,0.286-0.647c0.006-0.022,0.008-0.046,0.008-0.069C74.902,47.56,74.473,47.106,73.879,47.106z"/>
			<path d="M65.89,55.05c-0.469-0.239-0.973-0.51-1.523-0.825l-0.04-0.023c-0.889-0.508-1.884-0.787-2.804-0.787
				c-0.495,0-0.965,0.079-1.396,0.234c-0.007,0.002-0.013,0.006-0.02,0.009c-1.249,0.547-2.662,1.466-3.982,2.586
				c-0.083,0.071-0.124,0.18-0.107,0.288c0.017,0.107,0.089,0.199,0.189,0.24l3.663,1.513c0.965,1.688,0.733,3.773,0.508,5.793
				c-0.079,0.71-0.153,1.381-0.173,2.019c-0.01,0.341,0.025,0.774,0.068,1.277c0.125,1.491,0.294,3.511-0.663,4.552
				c-0.955-0.124-2.361,1.072-3.596,2.129c-0.21,0.18-0.414,0.354-0.604,0.512c-0.685-1.647-3.088-7.14-4.994-8.03
				c-0.009-0.081-0.042-0.158-0.097-0.224c-0.148-0.176-0.443-0.254-0.955-0.254c-1.22,0-3.748,0.488-5.625,1.57l-0.009,0.638
				c0.077,0.017,0.156,0.003,0.224-0.037c1.766-1.054,4.273-1.544,5.411-1.544c0.203,0,0.329,0.014,0.406,0.029
				c-0.017,0.155,0.084,0.3,0.238,0.337c0.426,0.102,1.402,0.78,3.16,4.183c1.025,1.984,1.813,3.938,1.821,3.957
				c0.037,0.092,0.114,0.16,0.209,0.187c0.026,0.007,0.054,0.009,0.081,0.009c0.069,0,0.137-0.021,0.193-0.065
				c0.286-0.223,0.608-0.499,0.949-0.791c0.98-0.838,2.323-1.987,3.04-1.987c0.055,0,0.104,0.007,0.145,0.021
				c0.108,0.037,0.231,0.013,0.316-0.065c1.307-1.208,1.115-3.501,0.975-5.176c-0.041-0.483-0.075-0.902-0.066-1.207
				c0.02-0.612,0.092-1.271,0.17-1.969c0.229-2.056,0.488-4.388-0.646-6.271c-0.035-0.058-0.086-0.104-0.148-0.129l-3.279-1.354
				c1.533-1.236,2.781-1.875,3.422-2.156c1.064-0.381,2.464-0.179,3.667,0.51l0.04,0.023c0.647,0.37,1.258,0.697,1.834,0.984
				L65.89,55.05L65.89,55.05z"/>
		</g>
	</g>
</g>
<g>
	<g>
		<g>
			<path d="M187.316,42.265c0,0.762-0.271,1.409-0.814,1.94c-0.546,0.532-1.193,0.798-1.94,0.798c-0.509,0-0.972-0.121-1.389-0.363
				c-0.417-0.242-0.746-0.57-0.986-0.989c-0.243-0.416-0.364-0.878-0.364-1.386c0-0.75,0.266-1.396,0.799-1.939
				c0.533-0.544,1.179-0.816,1.94-0.816c0.749,0,1.395,0.272,1.94,0.816C187.045,40.869,187.316,41.515,187.316,42.265z"/>
		</g>
	</g>
	<path d="M119.905,56.946c0.496-0.333,0.993,0.112,0.993,0.554v2.373c0,0.442-0.337,0.938-0.746,1.102c0,0-0.583,0.23-1.563,0.48
		c-0.98,0.249-1.921,0.373-2.817,0.373c-3.876,0-5.814-1.894-5.814-5.68v-5.266c0-0.442-0.362-0.803-0.803-0.803h-0.83
		c-0.442,0-0.805-0.212-0.805-0.472c0-0.259,0.254-0.729,0.564-1.044l6.092-6.208c0.311-0.315,0.701-0.574,0.87-0.574
		s0.307,0.362,0.307,0.804v2.952c0,0.442,0.361,0.804,0.804,0.804h3.535c0.441,0,0.804,0.361,0.804,0.803v2.131
		c0,0.442-0.362,0.804-0.804,0.804h-3.535c-0.441,0-0.804,0.361-0.804,0.803v3.267c0,0.442,0.013,1.165,0.027,1.606
		c0,0,0.007,0.223,0.078,0.572c0.069,0.348,0.266,0.641,0.59,0.874c0.324,0.235,0.814,0.353,1.473,0.353
		C118.275,57.555,119.16,57.395,119.905,56.946z"/>
	<path d="M181.871,61.434V47.146c0-0.442,0.361-0.804,0.805-0.804h3.79c0.44,0,0.801,0.361,0.801,0.804v14.492
		c0,3.789-1.937,5.68-5.813,5.68c-0.897,0-1.837-0.122-2.818-0.372s-1.562-0.48-1.562-0.48c-0.411-0.164-0.748-0.658-0.748-1.102
		v-2.372c0-0.442,0.498-0.887,0.994-0.554c0.742,0.446,1.629,0.605,2.385,0.605c0.657,0,1.132-0.142,1.473-0.352
		C181.688,62.38,181.871,61.788,181.871,61.434z"/>
	<path d="M100.449,46.074c-0.977,0-1.898,0.171-2.765,0.516c-0.867,0.344-2.034,1.397-2.034,1.397
		c-0.328,0.295-0.597,0.177-0.597-0.265v-6.077c0-0.442-0.363-0.804-0.803-0.804h-3.775c-0.442,0-0.803,0.361-0.803,0.804v19.111
		c0,0.442,0.361,0.803,0.803,0.803h3.775c0.44,0,0.803-0.36,0.803-0.803v-7.18c0.018-0.566,0.262-1.303,0.579-1.723
		c0.292-0.355,0.591-0.674,0.902-0.944c0.517-0.452,1.115-0.68,1.792-0.68c0.867,0,1.456,0.304,1.764,0.912
		c0.31,0.607,0.463,1.275,0.463,2.003c0,0.179-0.003,0.296-0.006,0.352c-0.006,0.055-0.006,0.055-0.006,0.055
		c0,0.064-0.002,0.479-0.002,0.92v6.285c0,0.442,0.361,0.803,0.804,0.803h3.774c0.442,0,0.804-0.36,0.804-0.803v-8.538
		C105.921,48.122,104.097,46.074,100.449,46.074z"/>
	<path d="M149.951,48.921c-0.395-0.922-1.001-1.627-1.822-2.115c-0.823-0.488-1.843-0.732-3.059-0.732s-2.288,0.249-3.221,0.747
		c-0.933,0.499-1.832,1.236-2.699,2.213c-0.219-0.528-0.512-0.992-0.881-1.391c-0.369-0.398-0.781-0.712-1.233-0.942
		c-0.454-0.229-0.916-0.391-1.384-0.486c-0.467-0.094-0.961-0.142-1.479-0.142c-1.098,0-2.063,0.194-2.9,0.583
		s-1.872,1.329-1.872,1.329c-0.327,0.297-0.595,0.179-0.595-0.263v-0.576c0-0.442-0.361-0.804-0.804-0.804h-3.774
		c-0.441,0-0.804,0.361-0.804,0.804v13.611c0,0.44,0.362,0.803,0.804,0.803h3.774c0.442,0,0.804-0.362,0.804-0.803v-7.12
		c0-0.572,0.292-1.417,0.687-1.899c0.247-0.312,0.465-0.561,0.645-0.73c0.209-0.201,0.48-0.381,0.814-0.54
		c0.334-0.158,0.702-0.238,1.1-0.238c0.837,0,1.418,0.278,1.748,0.837c0.329,0.559,0.421,1.576,0.421,1.576
		c0.04,0.439,0.073,1.162,0.073,1.604v6.51c0,0.442,0.361,0.803,0.804,0.803h3.774c0.441,0,0.804-0.36,0.804-0.803v-7.118
		c0-0.591,0.308-1.472,0.721-1.943l-0.014-0.003c0.242-0.291,0.485-0.553,0.729-0.783c0.479-0.452,1.09-0.679,1.837-0.679
		c0.769,0,1.33,0.267,1.684,0.798c0.353,0.535,0.454,1.615,0.454,1.615c0.042,0.439,0.075,1.162,0.075,1.604v6.51
		c0,0.442,0.363,0.803,0.806,0.803h3.773c0.44,0,0.803-0.36,0.803-0.803v-8.48C150.541,50.962,150.346,49.844,149.951,48.921z"/>
	<path d="M167.105,52.501c0.277-0.045,1.066-0.179,1.733-0.179c0.985,0,1.771,0.137,2.352,0.41c0.584,0.275,0.996,0.621,1.234,1.039
		c0.24,0.419,0.359,0.862,0.359,1.33c0,0.568-0.205,1.119-0.613,1.652c-0.409,0.533-1.122,0.801-2.137,0.801
		c-0.857,0-1.867-0.244-3.029-0.732c-1.16-0.489-2.017-1.023-2.017-1.023c-0.373-0.236-0.681-0.066-0.681,0.377v3.666
		c0.978,0.668,2.049,1.165,3.215,1.495c1.166,0.328,2.386,0.491,3.661,0.491c1.595,0,2.947-0.31,4.059-0.935
		c1.112-0.622,1.943-1.451,2.497-2.488c0.554-1.036,0.829-2.147,0.829-3.333c0-1.147-0.28-2.205-0.844-3.178
		c-0.562-0.97-1.372-1.751-2.431-2.338c-1.056-0.588-2.282-0.883-3.675-0.883c-0.22,0-0.368,0.004-0.441,0.008
		c-0.076,0.005-0.2,0.015-0.374,0.03c-0.175,0.015-0.175,0.015-0.175,0.015c-0.18,0.021-0.326-0.325-0.326-0.767v-1.95
		c0-0.442,0.363-0.804,0.804-0.804h5.808c0.442,0,0.803-0.362,0.803-0.804v-2.757c0-0.442-0.36-0.804-0.803-0.804h-10.398
		c-0.44,0-0.804,0.362-0.804,0.804v10.434c0,0.353,0.287,0.604,0.638,0.584C166.518,52.654,166.808,52.549,167.105,52.501z"/>
	<path d="M153.063,55.749c0,3.785,1.938,5.68,5.814,5.68c0.633,0,1.544-0.205,2.042-0.446c0.497-0.241,0.805-0.644,0.805-1.086
		v-2.144c0-0.442-0.362-0.804-0.803-0.804h-0.293c-0.659,0-1.15,0.088-1.473-0.146c-0.325-0.233-0.522-0.527-0.593-0.876
		c-0.069-0.349-0.076-0.571-0.076-0.571c-0.016-0.441-0.028-1.164-0.028-1.605V41.635c0-0.442-0.361-0.804-0.802-0.804h-3.79
		c-0.442,0-0.804,0.361-0.804,0.804V55.749z"/>
</g>
</svg>
